# xmcd CD database file
#
# Track frame offsets:
#	150
#	31458
#	65550
#	95343
#	128698
#	168530
#	184680
#	219710
#	245660
#	287780
#
# Disc length: 4140 seconds
#
# Revision: 0
# Processed by: cddbd v1.5.1PL0 Copyright (c) Steve Scherf et al.
# Submitted via: CDex 1.51
#
DISCID=95102a0a
DTITLE=Yanni - Live At The Acropolis
DYEAR=1994
DGENRE=Jazz
TTITLE0=Santorini
TTITLE1=Keys To Imagination
TTITLE2=Until The Last Moment
TTITLE3=The Rain Must Fall
TTITLE4=Acroyali/Standing In Motion (Medley)
TTITLE5=One Man's Dream
TTITLE6=Within Attraction
TTITLE7=Nostalgia
TTITLE8=Swept Away
TTITLE9=Reflections Of Passion
EXTD=YEAR: 1994
EXTT0=
EXTT1=
EXTT2=
EXTT3=
EXTT4=
EXTT5=
EXTT6=
EXTT7=
EXTT8=
EXTT9=
PLAYORDER=
